<svg width="45" height="45" viewBox="0 0 45 45" fill="none" xmlns="http://www.w3.org/2000/svg">
<path d="M28.5 43.5H27C27 43.7786 27.0776 44.0516 27.224 44.2886C27.3705 44.5256 27.58 44.7171 27.8292 44.8416C28.0783 44.9662 28.3573 45.019 28.6347 44.9939C28.9122 44.9689 29.1772 44.8671 29.4 44.7L28.5 43.5ZM34.5 39L35.4 37.8C35.1404 37.6053 34.8246 37.5 34.5 37.5C34.1754 37.5 33.8596 37.6053 33.6 37.8L34.5 39ZM40.5 43.5L39.6 44.7C39.8229 44.8671 40.0879 44.9689 40.3653 44.9939C40.6427 45.019 40.9217 44.9662 41.1708 44.8416C41.42 44.7171 41.6295 44.5256 41.776 44.2886C41.9224 44.0516 42 43.7786 42 43.5H40.5ZM34.5 33C32.5109 33 30.6032 32.2098 29.1967 30.8033C27.7902 29.3968 27 27.4891 27 25.5H24C24 28.2848 25.1063 30.9555 27.0754 32.9246C29.0445 34.8937 31.7152 36 34.5 36V33ZM42 25.5C42 27.4891 41.2098 29.3968 39.8033 30.8033C38.3968 32.2098 36.4891 33 34.5 33V36C37.2848 36 39.9555 34.8937 41.9246 32.9246C43.8938 30.9555 45 28.2848 45 25.5H42ZM34.5 18C36.4891 18 38.3968 18.7902 39.8033 20.1967C41.2098 21.6032 42 23.5109 42 25.5H45C45 22.7152 43.8938 20.0445 41.9246 18.0754C39.9555 16.1062 37.2848 15 34.5 15V18ZM34.5 15C31.7152 15 29.0445 16.1062 27.0754 18.0754C25.1063 20.0445 24 22.7152 24 25.5H27C27 23.5109 27.7902 21.6032 29.1967 20.1967C30.6032 18.7902 32.5109 18 34.5 18V15ZM27 31.5V43.5H30V31.5H27ZM29.4 44.7L35.4 40.2L33.6 37.8L27.6 42.3L29.4 44.7ZM33.6 40.2L39.6 44.7L41.4 42.3L35.4 37.8L33.6 40.2ZM42 43.5V31.5H39V43.5H42ZM45 15V4.5H42V15H45ZM40.5 0H4.5V3H40.5V0ZM0 4.5V40.5H3V4.5H0ZM4.5 45H24V42H4.5V45ZM0 40.5C0 41.6935 0.474106 42.8381 1.31802 43.682C2.16193 44.5259 3.30653 45 4.5 45V42C4.10218 42 3.72064 41.842 3.43934 41.5607C3.15804 41.2794 3 40.8978 3 40.5H0ZM4.5 0C3.30653 0 2.16193 0.474106 1.31802 1.31802C0.474106 2.16193 0 3.30653 0 4.5H3C3 4.10217 3.15804 3.72064 3.43934 3.43934C3.72064 3.15804 4.10218 3 4.5 3V0ZM45 4.5C45 3.30653 44.5259 2.16193 43.682 1.31802C42.8381 0.474106 41.6935 0 40.5 0V3C40.8978 3 41.2794 3.15804 41.5607 3.43934C41.842 3.72064 42 4.10217 42 4.5H45ZM9 15H24V12H9V15ZM9 24H18V21H9V24Z" fill="#5CB270"/>
</svg>
