<svg width="49" height="49" viewBox="0 0 49 49" fill="none" xmlns="http://www.w3.org/2000/svg">
<path d="M24.5 38.4582L33.0705 44.9545L47 26.5455M16.3182 22.4545C19.0306 22.4545 21.632 21.377 23.55 19.459C25.4679 17.5411 26.5455 14.9397 26.5455 12.2273C26.5455 9.51483 25.4679 6.91348 23.55 4.9955C21.632 3.07751 19.0306 2 16.3182 2C13.6057 2 11.0044 3.07751 9.08641 4.9955C7.16842 6.91348 6.09091 9.51483 6.09091 12.2273C6.09091 14.9397 7.16842 17.5411 9.08641 19.459C11.0044 21.377 13.6057 22.4545 16.3182 22.4545V22.4545ZM29.9061 32.06C29.2449 30.0032 28.1099 28.1304 26.5925 26.5925C24.0336 24.0091 20.4357 22.4545 16.3182 22.4545C8.13636 22.4545 2 28.5909 2 36.7727V47H22.4545L29.9061 32.06Z" stroke="#5CB270" stroke-width="4"/>
</svg>
