<svg width="40" height="48" viewBox="0 0 40 48" fill="none" xmlns="http://www.w3.org/2000/svg">
<path d="M39.905 18.0862C39.5747 14.6485 38.3597 11.3549 36.3785 8.52614C34.3973 5.69741 31.7174 3.42992 28.5996 1.94449C25.4819 0.459051 22.0326 -0.193709 18.5876 0.0497694C15.1427 0.293248 11.8195 1.42467 8.94166 3.33385C6.46928 4.98706 4.39375 7.16733 2.86414 9.71802C1.33454 12.2687 0.38884 15.1265 0.0949825 18.0862C-0.193282 21.0264 0.176565 23.9939 1.17769 26.7735C2.17881 29.553 3.78611 32.0749 5.88297 34.156L18.353 46.6496C18.5717 46.8701 18.832 47.0452 19.1187 47.1646C19.4054 47.2841 19.7129 47.3456 20.0235 47.3456C20.3341 47.3456 20.6417 47.2841 20.9284 47.1646C21.2151 47.0452 21.4753 46.8701 21.694 46.6496L34.117 34.156C36.2139 32.0749 37.8212 29.553 38.8223 26.7735C39.8234 23.9939 40.1933 21.0264 39.905 18.0862ZM30.8231 30.8385L20 41.6616L9.17694 30.8385C7.58193 29.2434 6.36013 27.3148 5.59937 25.1912C4.83862 23.0676 4.55781 20.8018 4.77713 18.5567C4.99787 16.2771 5.72242 14.0749 6.89838 12.1096C8.07435 10.1442 9.67235 8.46471 11.5768 7.19251C14.0731 5.53431 17.0032 4.64979 20 4.64979C22.9968 4.64979 25.9269 5.53431 28.4232 7.19251C30.3219 8.45979 31.9164 10.1319 33.092 12.0886C34.2677 14.0454 34.9954 16.2382 35.2229 18.5097C35.4493 20.7623 35.1721 23.0372 34.4111 25.1695C33.6501 27.3018 32.4246 29.2382 30.8231 30.8385ZM20 9.54535C17.9059 9.54535 15.8589 10.1663 14.1177 11.3297C12.3766 12.4931 11.0195 14.1467 10.2182 16.0814C9.41681 18.016 9.20714 20.1449 9.61567 22.1987C10.0242 24.2525 11.0326 26.1391 12.5133 27.6198C13.994 29.1005 15.8806 30.1089 17.9344 30.5175C19.9883 30.926 22.1171 30.7163 24.0518 29.915C25.9864 29.1136 27.64 27.7565 28.8034 26.0154C29.9668 24.2742 30.5878 22.2272 30.5878 20.1331C30.5816 17.327 29.4641 14.6375 27.4798 12.6533C25.4956 10.6691 22.8061 9.55156 20 9.54535ZM20 26.0152C18.8366 26.0152 17.6994 25.6702 16.7321 25.0239C15.7648 24.3776 15.0109 23.4589 14.5657 22.3841C14.1204 21.3093 14.004 20.1266 14.2309 18.9856C14.4579 17.8446 15.0181 16.7965 15.8407 15.9739C16.6634 15.1512 17.7114 14.591 18.8525 14.364C19.9935 14.1371 21.1762 14.2536 22.251 14.6988C23.3258 15.144 24.2445 15.8979 24.8908 16.8652C25.5371 17.8325 25.8821 18.9698 25.8821 20.1331C25.8821 21.6932 25.2624 23.1893 24.1593 24.2924C23.0562 25.3955 21.56 26.0152 20 26.0152Z" fill="#999999"/>
</svg>
