<svg width="40" height="40" viewBox="0 0 40 40" fill="none" xmlns="http://www.w3.org/2000/svg">
<path d="M38.8563 4.15652L38.7902 4.11523L30.4372 0L21.4214 12.021L25.5693 17.5519C25.4452 19.6378 24.5606 21.6058 23.0831 23.0833C21.6056 24.5608 19.6376 25.4453 17.5517 25.5694L12.0209 21.4215L0 30.4371L4.08099 38.7203L4.11533 38.7902L4.15671 38.8562C4.3745 39.2071 4.67847 39.4965 5.03969 39.6967C5.40091 39.8969 5.80737 40.0013 6.22036 40H8.37574C12.5287 40 16.641 39.182 20.4778 37.5927C24.3147 36.0035 27.8009 33.674 30.7375 30.7374C33.6741 27.8008 36.0035 24.3146 37.5928 20.4778C39.182 16.6409 40 12.5286 40 8.37565V6.22017C40.0013 5.80718 39.8969 5.40073 39.6967 5.03951C39.4965 4.67828 39.2072 4.37431 38.8563 4.15652ZM36.9132 8.37565C36.9132 24.1113 24.1113 36.9132 8.37574 36.9132H6.63168L3.90118 31.3701L12.0215 25.2798L16.5424 28.6704H17.0569C20.1361 28.667 23.0882 27.4422 25.2656 25.2649C27.4429 23.0876 28.6677 20.1354 28.6711 17.0562V16.5418L25.2805 12.0209L31.3701 3.90109L36.9132 6.63207V8.37565Z" fill="#999999"/>
</svg>
