<svg width="7" height="24" viewBox="0 0 7 24" fill="none" xmlns="http://www.w3.org/2000/svg">
<path d="M3.5 8.51613C5.43472 8.51613 7 10.0742 7 12C7 13.9258 5.43472 15.4839 3.5 15.4839C1.56528 15.4839 0 13.9258 0 12C0 10.0742 1.56528 8.51613 3.5 8.51613ZM0 3.48387C0 5.40968 1.56528 6.96774 3.5 6.96774C5.43472 6.96774 7 5.40968 7 3.48387C7 1.55806 5.43472 0 3.5 0C1.56528 0 0 1.55806 0 3.48387ZM0 20.5161C0 22.4419 1.56528 24 3.5 24C5.43472 24 7 22.4419 7 20.5161C7 18.5903 5.43472 17.0323 3.5 17.0323C1.56528 17.0323 0 18.5903 0 20.5161Z" fill="black"/>
</svg>
