<svg width="45" height="36" viewBox="0 0 45 36" fill="none" xmlns="http://www.w3.org/2000/svg">
<path d="M22.5 18L5.715 11.295L6.75 36H2.25L3.33 10.3275L0 9L22.5 0L45 9L22.5 18ZM22.5 6.75C21.2625 6.75 20.25 7.245 20.25 7.875C20.25 8.505 21.2625 9 22.5 9C23.7375 9 24.75 8.505 24.75 7.875C24.75 7.245 23.7375 6.75 22.5 6.75ZM22.5 20.25L35.0325 15.2325C36.63 17.3475 37.7325 19.89 38.0925 22.6575C37.4175 22.5675 36.72 22.5 36 22.5C30.2625 22.5 25.245 25.5825 22.5 30.1725C21.1067 27.8342 19.13 25.8978 16.7636 24.5528C14.3971 23.2079 11.7219 22.5005 9 22.5C8.28 22.5 7.5825 22.5675 6.9075 22.6575C7.2675 19.89 8.37 17.3475 9.9675 15.2325L22.5 20.25Z" fill="#5CB270"/>
</svg>
