<svg width="50" height="51" viewBox="0 0 50 51" fill="none" xmlns="http://www.w3.org/2000/svg">
<path d="M24.975 0.0366211C11.175 0.0366211 0 11.2366 0 25.0366C0 38.8366 11.175 50.0366 24.975 50.0366C38.8 50.0366 50 38.8366 50 25.0366C50 11.2366 38.8 0.0366211 24.975 0.0366211ZM25 45.0366C13.95 45.0366 5 36.0866 5 25.0366C5 13.9866 13.95 5.03662 25 5.03662C36.05 5.03662 45 13.9866 45 25.0366C45 36.0866 36.05 45.0366 25 45.0366ZM26.25 12.5366H22.5V27.5366L35.625 35.4116L37.5 32.3366L26.25 25.6616V12.5366Z" fill="white"/>
</svg>
